<svg width="186" height="32" fill="none" xmlns="http://www.w3.org/2000/svg"><path d="M1.489 8.348a4.85 4.85 0 116.859-6.86L30.58 23.723a4.85 4.85 0 11-6.858 6.858L1.489 8.348z" fill="#203AF4"/><path d="M23.223 8.708a8.707 8.707 0 008.709 8.71V0a8.708 8.708 0 00-8.709 8.708zM8.708 23.223A8.708 8.708 0 000 14.515v17.417a8.706 8.706 0 008.708-8.709zm102.711-12.837l-6.003 14.74-5.5-14.74H94.62l8.033 20.293h5.845l8.032-20.293h-5.11zm45.573-9.261A3.246 3.246 0 01160.173 5a3.24 3.24 0 01-2.548 2.549 3.246 3.246 0 01-2.929-5.477 3.242 3.242 0 012.296-.948zm2.411 9.26v20.403h-4.821V10.386h4.821zm-10.436-9.056v29.459h-4.841V1.328h4.841zm-9.64 19.461v9.996h-4.777v-2.753c-1.767 2.704-5.036 3.316-7.065 3.316-6.442 0-9.975-5.1-9.975-10.609 0-6.886 4.884-10.966 11.013-10.966 6.077 0 10.804 3.672 10.804 11.015zm-10.805-6.53c-2.65 0-6.181 1.53-6.181 6.328 0 4.692 2.909 6.327 5.552 6.478 2.598.152 6.65-1.276 6.65-6.327.007-5.253-3.371-6.477-6.021-6.477v-.001zm56.743 6.53v9.996h-4.777v-2.753c-1.766 2.704-5.036 3.316-7.065 3.316-6.441 0-9.974-5.1-9.974-10.609 0-6.886 4.884-10.966 11.013-10.966 6.077 0 10.803 3.672 10.803 11.015zm-10.804-6.53c-2.649 0-6.182 1.53-6.182 6.328 0 4.692 2.909 6.327 5.552 6.478 2.597.152 6.649-1.276 6.649-6.327.006-5.253-3.37-6.477-6.019-6.477v-.001zm-81.543 6.53v9.996H88.14v-2.753c-1.766 2.704-5.036 3.316-7.066 3.316-6.44 0-9.973-5.1-9.973-10.609 0-6.886 4.883-10.966 11.013-10.966 6.08 0 10.804 3.672 10.804 11.015zm-10.805-6.53c-2.65 0-6.182 1.53-6.182 6.328 0 4.692 2.908 6.327 5.553 6.478 2.598.152 6.65-1.276 6.65-6.327.005-5.253-3.372-6.477-6.021-6.477v-.001zm-29.627 5.714v10.814h-4.692V19.974c0-6.783 4.334-10.2 9.997-10.2 5.662 0 9.996 3.418 9.996 10.2v10.814h-4.692V19.974c0-4.692-3.009-5.712-5.304-5.712-2.296 0-5.305 1.02-5.305 5.712z" fill="#0C064C"/></svg>