<svg width="153" height="24" xmlns="http://www.w3.org/2000/svg"><path d="M150.776 7.494c.262.006.443-.055.443-.344 0-.32-.335-.296-.558-.296h-.523v.64h.638zm.82 1.347h-.558l-.517-.99h-.383v.99h-.486v-2.35h1.117c.609 0 .9.166.9.719 0 .431-.224.61-.63.64l.557.991zm.516-1.188c0-.966-.662-1.654-1.579-1.654-.936 0-1.58.688-1.58 1.654 0 .979.644 1.662 1.58 1.662.917 0 1.579-.683 1.579-1.662zm-3.723 0c0-1.194.953-2.165 2.144-2.165 1.178 0 2.144.971 2.144 2.165 0 1.207-.966 2.18-2.144 2.18-1.19 0-2.144-.973-2.144-2.18zM13.71 3.341H8.765v16.02h-3.82V3.342H0V.068h13.71V3.34m5.068 3.573c1.151-.968 2.57-1.737 4.09-1.737 1.493 0 3.598.918 3.598 4.34v9.845h-3.623v-8.356c0-1.116.073-2.877-1.494-2.877-1.053 0-1.885.768-2.57 1.513v9.72h-3.624V.068h3.623v6.845m17.506 5.505c0-1.736-.343-4.538-2.301-4.538-1.96 0-2.302 2.802-2.302 4.538 0 1.736.343 4.538 2.302 4.538 1.958 0 2.3-2.802 2.3-4.538m-8.324 0c0-3.695 2.008-7.242 6.024-7.242 4.015 0 6.022 3.547 6.022 7.242 0 3.67-2.032 7.241-6.022 7.241-3.991 0-6.024-3.57-6.024-7.241m21.325 5.506c-1.15.967-2.571 1.735-4.089 1.735-1.493 0-3.599-.917-3.599-4.34V5.474h3.624v8.357c0 1.117-.074 2.877 1.493 2.877 1.053 0 1.885-.769 2.57-1.513V5.474h3.624v13.888h-3.623v-1.438m10.896-5.456c1.517 0 1.958-1.265 1.958-2.58 0-1.264-.588-2.331-1.959-2.331-1.517 0-1.983 1.29-1.983 2.604 0 1.265.587 2.307 1.983 2.307zm-2.499 6.919c-.342.223-.562.421-.562.868 0 1.29 2.57 1.364 3.428 1.364.612 0 3.794-.074 3.794-1.19 0-.72-.49-.645-2.644-.77l-4.016-.272zm1.151-4.588c-.416 0-1.028.223-1.028.868 0 1.81 9.5-1.339 9.5 4.092 0 2.059-1.371 4.241-6.806 4.241-4.726 0-6.342-1.687-6.342-3.497 0-1.067.661-1.612 1.494-2.108-.588-.447-1.078-.968-1.078-1.76 0-1.365.735-2.084 1.788-2.779-1.004-.991-1.715-2.232-1.715-3.819 0-3.075 2.571-4.861 5.534-4.861 1.2 0 2.35.347 3.379.967.734-.694 1.395-1.14 2.473-1.14.342 0 .71.024 1.053.098v2.58c-.368-.149-.76-.298-1.151-.298-.392 0-.637.125-.98.298.392.744.71 1.562.735 2.356 0 3.075-2.546 4.86-5.509 4.86l-1.347-.098zm13.441-7.886c1.151-.968 2.571-1.737 4.09-1.737 1.493 0 3.598.918 3.598 4.34v9.845h-3.623v-8.356c0-1.116.073-2.877-1.494-2.877-1.053 0-1.885.768-2.57 1.513v9.72H68.65V.068h3.623v6.845m14.274-1.439h2.815v3.05h-2.815v7.069c0 .67.196 1.363 1.37 1.363.612 0 1.005-.248 1.445-.52v2.803c-.758.223-1.542.42-2.326.42-2.252 0-4.112-1.289-4.112-4.315v-6.82h-1.69v-3.05h1.69V2.002h3.623v3.472m17.897 13.888h-1.958L99.253 3.589h-.049l-3.403 15.773h-1.958L89.853.068h1.909l3.134 15.574h.048L98.372.068h1.885l3.257 15.574h.048L106.917.068h1.885l-4.358 19.294m12.436-6.845c0-2.331-.562-5.605-3.5-5.605-2.938 0-3.501 3.274-3.501 5.605 0 2.332.563 5.605 3.5 5.605 2.939 0 3.502-3.273 3.502-5.605m-8.911 0c0-5.133 2.399-7.241 5.41-7.241 3.012 0 5.41 2.108 5.41 7.24 0 5.135-2.398 7.243-5.41 7.243-3.011 0-5.41-2.108-5.41-7.242m14.223-3.893h.05c.758-1.637 1.737-3.15 3.746-3.15h.734v1.76c-2.497-.347-3.794 2.382-4.53 4.366v7.761h-1.91V5.672h1.91v2.952m7.982 3.397l5.02-6.35h2.13l-3.723 4.688 4.284 9.003h-2.055l-3.453-7.44-2.203 2.753v4.687h-1.91V.068h1.91V12.02m15.987-3.297c-.758-1.141-1.665-1.81-3.085-1.81-1.248 0-2.423.644-2.423 2.033 0 3.348 7.124 1.885 7.124 6.498 0 2.678-1.885 4.315-4.43 4.315-2.181 0-3.943-.967-5.045-2.877l1.518-.967c.735 1.414 1.91 2.207 3.526 2.207 1.395 0 2.643-.768 2.643-2.331 0-3.447-7.123-1.81-7.123-6.721 0-2.356 1.91-3.794 4.137-3.794 1.885 0 3.452.793 4.504 2.38l-1.346 1.067" fill-rule="evenodd"/></svg>